<?xml version="1.0" standalone="no"?>
<!DOCTYPE svg PUBLIC "-//W3C//DTD SVG 20010904//EN"
 "http://www.w3.org/TR/2001/REC-SVG-20010904/DTD/svg10.dtd">
<svg version="1.0" xmlns="http://www.w3.org/2000/svg"
 width="4267.000000pt" height="4267.000000pt" viewBox="0 0 4267.000000 4267.000000"
 preserveAspectRatio="xMidYMid meet">
<metadata>
Created by potrace 1.14, written by Peter Selinger 2001-2017
</metadata>
<g transform="translate(0.000000,4267.000000) scale(0.100000,-0.100000)"
fill="#000000" stroke="none">
<path d="M6717 33054 c-1 -1 -65 -5 -141 -9 -77 -4 -146 -8 -155 -10 -9 -1
-51 -6 -94 -10 -43 -3 -86 -8 -95 -10 -9 -1 -46 -6 -82 -10 -36 -4 -74 -9 -85
-11 -11 -2 -31 -6 -45 -9 -14 -2 -43 -7 -65 -10 -23 -3 -52 -7 -65 -10 -14 -3
-41 -8 -60 -11 -19 -3 -73 -15 -120 -26 -47 -11 -96 -22 -109 -24 -13 -3 -51
-12 -85 -20 -34 -9 -82 -21 -108 -27 -25 -7 -50 -15 -54 -20 -4 -4 -14 -7 -23
-7 -26 0 -290 -89 -461 -157 -156 -61 -546 -245 -627 -296 -21 -13 -78 -48
-128 -77 -260 -155 -534 -358 -775 -574 -58 -52 -334 -329 -380 -381 -171
-194 -312 -377 -457 -595 -61 -91 -122 -185 -136 -210 -14 -25 -57 -101 -97
-170 -77 -134 -280 -543 -280 -564 0 -3 -11 -29 -24 -58 -85 -184 -253 -687
-291 -868 -2 -8 -10 -45 -19 -83 -9 -37 -18 -82 -21 -100 -3 -17 -10 -48 -15
-67 -5 -19 -11 -48 -14 -65 -2 -16 -11 -73 -20 -125 -8 -52 -18 -115 -21 -140
-3 -25 -8 -56 -10 -70 -2 -14 -7 -54 -10 -90 -4 -36 -8 -78 -10 -93 -24 -194
-24 -763 0 -962 2 -16 6 -57 10 -90 9 -95 16 -146 25 -205 5 -30 12 -73 15
-95 11 -73 66 -335 90 -428 45 -174 56 -212 95 -332 103 -317 169 -481 326
-800 132 -269 229 -437 397 -690 124 -187 369 -516 432 -581 5 -6 30 -35 55
-65 114 -136 229 -260 419 -449 316 -314 565 -531 906 -786 160 -120 393 -284
404 -284 5 0 11 -3 13 -8 3 -6 100 -67 180 -112 15 -8 54 -30 85 -49 154 -91
445 -248 668 -360 238 -120 339 -169 590 -281 301 -135 741 -303 1080 -413
149 -49 462 -143 505 -152 27 -6 255 -67 257 -69 2 -1 5 -204 8 -452 3 -247 7
-471 9 -499 2 -27 7 -106 11 -175 3 -69 8 -147 10 -175 2 -27 7 -84 10 -125 4
-41 8 -88 10 -105 2 -16 7 -61 10 -100 4 -38 8 -77 10 -85 1 -8 6 -40 9 -70 4
-30 8 -66 11 -80 2 -14 7 -45 10 -70 2 -25 7 -56 9 -70 3 -14 10 -59 16 -100
7 -41 14 -84 16 -95 3 -11 7 -36 10 -55 5 -29 26 -132 84 -415 75 -361 272
-988 450 -1435 60 -149 74 -183 126 -298 13 -29 24 -54 24 -57 0 -31 370 -761
479 -945 l21 -36 -93 -38 c-132 -55 -117 -49 -627 -257 -124 -50 -241 -98
-260 -106 -43 -18 -38 -16 -240 -98 -91 -37 -178 -73 -194 -81 -16 -8 -33 -14
-38 -14 -5 0 -28 -9 -51 -19 -23 -10 -125 -53 -227 -94 -102 -41 -237 -96
-300 -122 -63 -26 -128 -53 -145 -60 -16 -7 -115 -48 -220 -90 -247 -100 -302
-126 -388 -181 -307 -198 -512 -519 -564 -886 -10 -67 -10 -255 -1 -328 35
-274 174 -549 374 -741 126 -121 296 -224 461 -280 140 -47 235 -62 388 -63
190 0 268 11 425 64 41 14 830 334 985 399 40 17 83 35 239 97 87 36 173 71
190 79 17 7 139 57 271 111 132 53 258 104 280 114 22 9 60 25 85 34 25 10 54
22 65 27 11 5 148 61 305 124 407 166 644 263 725 296 l70 29 34 -37 c257
-290 758 -790 1075 -1073 21 -19 51 -46 66 -60 32 -29 55 -49 165 -144 44 -37
91 -78 105 -90 28 -23 203 -168 209 -173 6 -4 -18 -48 -38 -70 -9 -10 -77 -99
-151 -198 -75 -99 -219 -290 -321 -425 -205 -271 -558 -739 -743 -985 -67 -88
-123 -162 -126 -165 -3 -3 -23 -30 -45 -60 -22 -30 -44 -60 -50 -67 -52 -62
-292 -389 -321 -438 -82 -136 -143 -310 -162 -455 -9 -71 -9 -334 1 -382 77
-408 300 -716 659 -912 73 -40 275 -110 348 -120 170 -26 330 -26 450 -1 14 2
39 7 55 11 98 20 257 83 365 145 64 37 180 128 245 194 39 40 132 153 205 251
74 99 138 184 143 189 17 22 203 267 382 504 223 298 214 286 241 319 24 31
315 417 669 887 136 182 250 332 252 334 4 6 64 -26 218 -115 39 -23 97 -56
130 -74 33 -18 74 -41 90 -50 375 -208 906 -469 1305 -642 63 -27 129 -55 145
-63 70 -31 283 -117 445 -180 96 -37 184 -71 195 -75 30 -13 284 -103 411
-146 l112 -38 63 -96 c35 -52 69 -102 76 -110 6 -8 42 -56 80 -106 160 -214
375 -441 589 -623 98 -84 114 -97 219 -177 326 -248 793 -489 1210 -626 115
-38 388 -111 450 -122 17 -3 41 -7 55 -11 46 -10 270 -46 323 -51 29 -3 63 -7
77 -9 143 -26 892 -26 973 0 7 2 36 6 65 9 66 8 121 15 148 21 12 3 39 7 60
11 21 3 71 12 109 21 39 8 81 17 95 19 14 3 59 14 100 25 41 11 84 22 94 24
94 22 433 141 544 191 29 13 55 24 58 24 29 0 478 246 619 340 164 108 412
302 531 415 213 202 328 327 482 524 80 102 185 250 208 291 21 38 45 57 87
70 108 32 765 278 852 320 11 5 115 50 230 99 116 49 255 110 310 136 55 26
141 65 190 88 112 52 618 306 740 372 123 66 387 213 405 225 8 5 35 21 60 35
25 14 68 39 95 56 59 35 75 43 79 38 1 -2 142 -188 312 -414 169 -225 312
-414 316 -420 5 -5 32 -41 61 -80 29 -38 97 -128 151 -200 53 -71 105 -140
114 -152 9 -12 25 -32 34 -45 10 -13 104 -138 210 -278 106 -140 297 -392 423
-560 274 -363 372 -465 545 -569 101 -60 287 -133 379 -147 20 -3 39 -8 42
-10 11 -6 164 -18 235 -17 198 2 365 43 547 133 132 66 214 127 323 236 238
238 362 539 365 884 1 192 -57 423 -145 580 -14 25 -30 55 -35 66 -5 12 -67
98 -137 190 -70 93 -225 297 -343 454 -417 553 -736 975 -748 990 -6 8 -34 44
-60 80 -27 36 -160 212 -295 391 l-247 327 22 18 c12 11 45 37 72 59 28 22 55
45 60 51 6 5 39 35 75 65 36 30 70 59 76 64 6 6 38 33 70 60 32 28 65 57 74
65 9 8 56 51 106 95 291 260 800 764 998 989 31 36 36 38 63 28 28 -9 346
-138 628 -254 66 -27 165 -67 220 -90 55 -22 114 -46 130 -53 17 -7 127 -52
245 -100 118 -47 229 -92 245 -100 17 -7 66 -28 110 -45 44 -17 94 -38 110
-45 17 -7 138 -57 270 -110 132 -53 254 -103 270 -110 17 -8 131 -55 255 -105
124 -50 236 -96 250 -102 31 -14 46 -20 145 -59 44 -17 98 -39 120 -49 232
-103 537 -134 783 -79 363 80 686 333 850 665 56 113 98 246 118 375 10 61 10
304 1 363 -52 321 -213 600 -462 797 -135 107 -184 131 -610 304 -132 54 -352
144 -490 200 -137 56 -347 141 -465 189 -118 48 -228 93 -245 101 -16 7 -237
97 -490 200 -253 103 -462 189 -465 192 -2 2 4 19 14 36 10 18 32 57 49 87 17
30 40 71 52 90 11 19 26 46 33 60 7 14 37 70 67 125 106 192 319 633 420 870
7 17 24 57 38 90 122 286 304 812 392 1135 73 265 173 700 190 824 3 15 6 35
9 45 3 9 8 36 11 61 9 63 15 102 20 120 2 8 6 38 10 65 3 28 8 57 10 65 2 8 6
40 10 71 3 31 7 65 9 75 2 11 7 51 10 89 4 39 9 81 11 95 3 23 12 107 20 205
14 153 33 483 40 695 3 58 5 214 6 348 l2 242 41 11 c340 88 816 235 1106 342
125 46 472 183 530 209 25 12 101 45 170 75 327 143 763 363 1155 583 159 89
371 219 465 284 112 77 483 351 511 378 8 7 30 25 49 40 19 15 47 37 62 50 14
13 37 32 50 42 176 145 315 273 538 496 196 196 309 315 386 410 16 19 34 40
40 45 6 6 56 66 111 135 317 397 554 764 762 1184 88 178 223 481 235 531 2 6
7 21 13 35 48 119 157 479 194 640 25 109 56 257 62 295 14 84 27 165 32 205
3 25 8 56 10 70 2 14 7 59 10 100 4 41 9 82 10 90 9 48 19 303 19 490 -1 269
-12 447 -45 685 -5 39 -12 88 -14 110 -3 22 -8 51 -10 65 -3 14 -7 41 -10 60
-7 46 -44 225 -55 270 -5 19 -11 46 -14 60 -26 129 -81 318 -173 585 -30 88
-61 174 -68 190 -8 17 -26 59 -40 95 -15 36 -38 89 -51 118 -13 29 -24 55 -24
58 0 20 -216 440 -282 549 -10 17 -22 39 -28 50 -60 121 -274 434 -436 638
-168 211 -440 498 -615 649 -304 262 -558 442 -867 616 -132 74 -452 228 -577
277 -66 26 -129 51 -140 56 -94 42 -473 157 -635 193 -258 58 -494 98 -725
121 -33 4 -76 8 -95 10 -214 24 -844 24 -1050 0 -19 -2 -71 -7 -114 -10 -43
-4 -86 -8 -95 -10 -9 -1 -47 -6 -84 -10 -37 -3 -76 -8 -85 -10 -9 -1 -39 -6
-67 -9 -27 -4 -61 -8 -75 -11 -14 -3 -40 -7 -57 -10 -18 -3 -48 -7 -65 -10
-28 -5 -208 -40 -386 -76 -24 -5 -47 -11 -51 -13 -4 -3 -21 -8 -37 -11 -16 -3
-65 -14 -109 -25 -44 -12 -89 -23 -100 -25 -33 -7 -312 -90 -420 -125 -754
-243 -1616 -661 -2245 -1088 -202 -137 -649 -480 -720 -552 -3 -3 -25 -23 -50
-44 -145 -127 -248 -224 -440 -416 -237 -238 -277 -280 -430 -455 -172 -197
-181 -208 -224 -262 -22 -29 -44 -53 -49 -53 -4 0 -96 43 -205 96 -641 313
-1312 569 -2059 784 -170 50 -473 132 -535 146 -36 8 -54 12 -138 33 -47 11
-107 25 -135 31 -27 7 -57 13 -65 15 -12 3 -101 22 -180 40 -8 2 -105 21 -215
43 -188 38 -272 54 -355 67 -19 3 -46 8 -60 10 -14 3 -36 8 -50 10 -14 3 -54
10 -90 15 -36 5 -76 12 -90 14 -14 3 -72 12 -130 21 -58 9 -116 18 -130 20
-14 2 -63 9 -110 15 -47 6 -96 13 -110 15 -14 2 -50 7 -80 10 -30 3 -62 8 -70
10 -8 2 -46 6 -83 10 -37 3 -76 8 -85 10 -18 3 -105 13 -187 20 -27 3 -72 7
-100 10 -27 3 -70 8 -95 11 -25 2 -70 6 -100 9 -30 2 -84 7 -120 10 -36 4 -90
8 -120 10 -30 2 -82 7 -115 10 -98 8 -305 21 -490 30 -60 3 -148 7 -195 10
-448 25 -1650 26 -2155 0 -44 -2 -143 -6 -220 -10 -77 -3 -167 -8 -200 -10
-33 -2 -109 -7 -170 -11 -60 -3 -126 -7 -145 -9 -19 -1 -80 -6 -135 -9 -55 -4
-118 -9 -140 -11 -22 -3 -76 -7 -120 -10 -44 -3 -96 -7 -115 -9 -19 -3 -64 -7
-100 -11 -36 -3 -85 -8 -110 -10 -25 -3 -74 -7 -110 -10 -36 -4 -76 -8 -90
-10 -14 -2 -72 -9 -130 -15 -58 -6 -116 -13 -130 -15 -14 -2 -50 -7 -80 -10
-30 -3 -66 -8 -80 -10 -14 -2 -50 -7 -80 -10 -30 -4 -62 -9 -70 -10 -8 -2 -44
-6 -80 -10 -36 -4 -67 -8 -70 -10 -3 -2 -34 -6 -70 -10 -36 -4 -68 -9 -71 -10
-3 -2 -31 -6 -63 -9 -32 -4 -61 -8 -65 -10 -3 -2 -31 -7 -61 -11 -30 -4 -91
-13 -135 -21 -44 -8 -96 -17 -115 -20 -19 -2 -48 -7 -65 -11 -16 -3 -39 -7
-50 -9 -57 -8 -521 -99 -605 -118 -36 -8 -76 -17 -90 -19 -88 -16 -688 -161
-765 -185 -11 -3 -22 -7 -25 -7 -23 -6 -361 -102 -475 -136 -149 -43 -572
-185 -790 -264 -104 -38 -550 -214 -620 -245 -304 -136 -447 -201 -585 -268
l-165 -80 -25 31 c-51 64 -266 323 -301 362 -20 22 -80 90 -135 150 -209 235
-640 651 -873 845 -30 25 -71 59 -90 75 -20 17 -56 46 -81 65 -25 19 -47 37
-50 40 -7 9 -234 178 -305 229 -804 567 -1824 1042 -2801 1305 -72 19 -142 38
-155 40 -23 5 -75 17 -127 30 -13 3 -31 7 -40 10 -9 3 -28 7 -42 10 -14 2 -61
12 -105 21 -44 9 -89 18 -100 20 -11 1 -74 12 -140 24 -66 11 -140 23 -164 26
-23 3 -55 7 -70 9 -39 6 -168 21 -266 31 -204 20 -361 27 -618 29 -137 1 -249
1 -250 0z m458 -588 c99 -4 198 -9 220 -11 162 -15 337 -34 375 -40 14 -3 48
-7 75 -10 28 -4 57 -8 65 -10 8 -2 29 -6 45 -9 71 -12 107 -18 230 -42 72 -14
137 -27 145 -29 8 -2 44 -10 80 -18 74 -16 323 -82 390 -102 25 -8 79 -24 120
-35 41 -12 84 -26 95 -30 11 -5 83 -30 160 -55 77 -26 160 -55 185 -65 25 -10
74 -29 110 -43 241 -93 530 -222 765 -340 188 -95 587 -313 620 -339 6 -5 69
-45 140 -90 72 -45 132 -84 135 -87 3 -3 34 -26 70 -50 150 -103 477 -357 580
-450 19 -18 47 -42 62 -54 232 -193 632 -598 914 -927 151 -176 490 -609 523
-668 8 -15 12 -13 251 117 210 115 588 296 877 420 209 89 266 112 533 214
350 133 831 289 1205 391 206 56 219 59 230 62 6 1 102 25 215 53 113 28 219
54 235 57 17 3 48 10 70 16 22 5 51 12 65 15 14 2 86 17 161 33 74 16 151 32
170 35 19 3 77 14 129 25 158 32 408 76 655 115 22 3 56 8 75 11 19 2 46 6 60
9 38 7 102 17 237 35 46 6 97 13 115 15 18 3 56 7 83 10 28 3 79 10 115 15 36
5 92 12 125 15 33 3 71 7 85 9 26 5 89 11 195 21 33 3 74 8 90 10 17 2 66 7
110 10 44 4 98 9 120 11 22 2 72 6 110 9 39 3 95 8 125 10 30 3 91 7 135 10
44 3 105 8 135 10 30 2 96 7 145 10 50 2 131 7 180 10 50 3 142 8 205 10 63 3
171 7 240 10 565 23 1397 23 1910 0 225 -10 357 -16 405 -20 28 -1 108 -6 178
-10 70 -3 136 -8 145 -10 9 -1 63 -6 119 -9 56 -4 110 -8 120 -10 10 -2 63 -7
118 -11 55 -3 111 -8 125 -10 14 -2 57 -6 95 -10 39 -3 81 -8 95 -10 14 -2 52
-7 84 -10 33 -3 73 -8 90 -10 17 -2 58 -7 91 -10 33 -3 69 -8 80 -10 11 -2 47
-7 80 -10 33 -3 67 -8 75 -10 14 -3 41 -7 150 -20 25 -3 70 -10 100 -15 30 -5
78 -12 105 -16 28 -3 59 -8 70 -10 32 -7 63 -12 165 -28 52 -9 106 -18 120
-20 14 -3 54 -10 90 -16 687 -120 1505 -332 2160 -559 334 -115 728 -271 960
-378 30 -14 93 -42 140 -63 114 -51 480 -234 610 -305 225 -124 220 -122 231
-103 8 14 140 188 176 233 5 6 35 44 68 85 70 87 166 203 175 210 3 3 16 19
29 35 12 17 39 48 59 70 20 22 75 83 122 135 262 290 591 608 854 825 27 22
54 45 60 50 100 93 578 438 736 532 19 11 88 53 153 92 65 39 119 71 121 71 1
0 52 27 112 61 60 34 206 109 324 168 208 103 247 121 375 176 33 14 69 30 80
35 301 137 826 317 1193 410 148 37 420 96 482 105 25 4 63 10 85 15 22 5 65
12 95 15 30 4 57 8 60 10 3 2 34 6 69 10 34 4 71 8 82 10 11 2 50 7 87 10 37
3 81 7 97 9 31 4 209 17 305 22 82 4 444 4 530 -1 230 -12 382 -28 615 -66
125 -21 147 -24 180 -32 11 -2 38 -8 60 -12 22 -5 46 -10 53 -12 23 -6 37 -9
72 -17 198 -43 584 -174 785 -266 354 -162 621 -321 910 -542 295 -226 614
-551 838 -853 48 -66 94 -127 100 -135 7 -8 45 -67 86 -130 103 -160 104 -163
117 -185 6 -11 21 -38 34 -60 88 -151 246 -465 305 -605 15 -36 33 -78 40 -95
165 -381 314 -966 350 -1370 4 -38 8 -81 11 -95 22 -140 22 -588 -1 -835 -10
-111 -16 -171 -20 -185 -2 -8 -7 -44 -10 -79 -3 -35 -8 -67 -10 -71 -2 -4 -7
-27 -10 -51 -3 -24 -7 -51 -10 -59 -2 -8 -6 -26 -9 -40 -12 -66 -58 -269 -72
-318 -9 -30 -17 -60 -18 -66 -15 -71 -141 -443 -180 -528 -8 -18 -22 -51 -31
-73 -66 -165 -227 -482 -346 -680 -55 -93 -105 -171 -110 -173 -5 -2 -9 -8 -9
-13 0 -33 -356 -509 -513 -687 -220 -249 -445 -476 -656 -662 -41 -36 -79 -70
-85 -76 -34 -33 -267 -222 -356 -290 -58 -43 -107 -81 -110 -84 -17 -20 -363
-257 -445 -307 -198 -120 -524 -299 -765 -420 -135 -68 -251 -128 -257 -134
-7 -5 -13 -8 -13 -5 0 3 -35 -12 -77 -33 -43 -21 -157 -73 -253 -115 -96 -42
-193 -85 -215 -95 -22 -10 -67 -28 -100 -41 -33 -12 -75 -29 -93 -37 -18 -8
-56 -23 -85 -33 -29 -10 -101 -38 -162 -60 -228 -86 -504 -174 -890 -285 -137
-39 -591 -142 -635 -144 -13 -1 -14 -12 -9 -68 6 -72 3 -1025 -4 -1128 -3 -33
-7 -116 -11 -185 -3 -69 -8 -143 -11 -165 -3 -22 -7 -76 -10 -120 -3 -44 -8
-96 -10 -115 -2 -19 -6 -64 -10 -100 -3 -36 -8 -81 -10 -100 -3 -19 -7 -57
-11 -85 -6 -54 -8 -67 -18 -135 -4 -25 -9 -56 -11 -70 -11 -78 -20 -131 -30
-180 -2 -14 -7 -41 -10 -60 -14 -92 -61 -313 -101 -480 -25 -102 -47 -194 -50
-205 -2 -11 -12 -49 -23 -85 -11 -36 -42 -141 -70 -235 -49 -165 -131 -408
-186 -550 -15 -38 -28 -74 -29 -80 -2 -5 -8 -23 -14 -38 -7 -15 -30 -74 -53
-130 -23 -56 -54 -130 -70 -165 -16 -35 -29 -66 -29 -68 0 -3 -12 -31 -26 -62
-14 -31 -40 -88 -58 -126 -39 -88 -252 -511 -296 -591 -151 -272 -338 -588
-352 -593 -4 -2 -8 -8 -8 -13 0 -8 -36 -67 -137 -221 -53 -83 -60 -98 -41 -98
8 0 28 -6 44 -14 16 -8 99 -42 184 -76 85 -34 169 -68 185 -76 17 -7 129 -53
250 -102 418 -169 670 -272 715 -292 25 -10 158 -64 295 -120 138 -56 264
-108 280 -115 17 -7 89 -37 160 -65 72 -28 155 -62 185 -75 30 -13 168 -70
305 -125 138 -56 292 -119 343 -141 51 -21 99 -39 107 -39 8 0 15 -4 15 -10 0
-5 7 -10 16 -10 61 0 258 -159 314 -253 72 -121 103 -231 103 -362 0 -115 -14
-178 -69 -293 -36 -74 -59 -107 -117 -165 -91 -90 -93 -91 -177 -133 -143 -72
-309 -92 -455 -54 -44 11 -93 27 -110 34 -16 8 -77 33 -135 56 -58 23 -118 48
-135 55 -29 13 -172 71 -510 208 -367 149 -511 208 -530 217 -11 5 -105 44
-210 86 -104 42 -201 81 -215 87 -14 6 -27 11 -30 12 -3 1 -22 9 -44 18 -21 9
-41 17 -43 17 -3 0 -19 7 -36 15 -18 8 -122 51 -232 96 -110 44 -238 97 -285
116 -47 19 -139 57 -205 83 -108 43 -372 152 -450 185 -16 7 -50 20 -75 30
-25 9 -60 23 -77 31 -47 20 -89 38 -157 65 l-58 24 -20 -25 c-22 -28 -117
-136 -157 -179 -14 -16 -43 -48 -65 -72 -209 -238 -781 -812 -976 -979 -14
-12 -43 -38 -65 -58 -22 -20 -74 -66 -115 -102 -41 -36 -80 -69 -86 -75 -54
-48 -91 -81 -169 -145 -49 -41 -95 -79 -102 -85 -6 -5 -26 -21 -44 -35 -18
-14 -37 -30 -43 -35 -6 -6 -33 -28 -61 -50 -27 -22 -55 -44 -61 -50 -7 -5 -35
-28 -64 -50 -29 -22 -69 -53 -90 -70 -21 -16 -49 -38 -64 -49 -14 -10 -33 -24
-42 -30 -14 -11 0 -33 107 -177 68 -90 126 -166 129 -169 3 -3 59 -77 125
-165 133 -179 126 -169 158 -210 13 -16 151 -199 306 -405 155 -206 287 -382
294 -390 12 -15 54 -71 317 -420 69 -91 127 -167 130 -170 3 -3 44 -57 90
-120 46 -63 90 -122 97 -130 7 -8 66 -87 132 -175 66 -88 124 -165 129 -170
36 -43 114 -159 135 -202 66 -131 85 -323 46 -463 -61 -214 -224 -388 -433
-460 -28 -9 -54 -17 -59 -18 -4 0 -26 -4 -50 -8 -141 -24 -307 9 -442 89 -64
37 -205 166 -205 187 0 5 -6 15 -13 22 -7 7 -33 40 -57 73 -25 33 -47 62 -50
65 -3 3 -39 50 -80 105 -41 55 -78 102 -82 103 -5 2 -8 8 -8 13 0 5 -19 33
-42 62 -24 29 -53 66 -65 82 -34 46 -419 556 -596 790 -88 116 -173 228 -189
250 -16 22 -38 51 -48 65 -10 14 -53 70 -94 125 -41 55 -79 105 -83 110 -13
16 -142 186 -409 540 -137 182 -260 345 -274 363 l-26 32 -89 -56 c-162 -102
-484 -294 -493 -294 -5 0 -20 -8 -33 -18 -13 -11 -49 -32 -79 -49 -30 -16 -91
-50 -135 -75 -316 -178 -783 -413 -1143 -575 -79 -35 -151 -68 -160 -73 -9 -5
-33 -15 -52 -23 -32 -13 -244 -102 -315 -132 -16 -7 -91 -36 -165 -65 -74 -29
-148 -58 -165 -65 -48 -21 -408 -149 -565 -202 l-145 -49 -45 -75 c-79 -133
-186 -291 -269 -398 -638 -825 -1610 -1343 -2661 -1418 -184 -13 -536 -7 -695
11 -16 2 -57 7 -90 10 -114 13 -228 32 -365 62 -41 9 -79 17 -85 19 -138 30
-405 118 -580 190 -222 92 -506 251 -695 389 -214 157 -496 422 -634 596 -37
47 -73 92 -79 100 -73 91 -204 295 -282 435 l-27 50 -207 69 c-305 101 -832
299 -1028 387 -24 10 -45 19 -48 19 -4 0 -240 103 -320 140 -22 10 -65 29 -95
43 -358 162 -894 436 -1228 629 -46 26 -85 48 -87 48 -1 0 -108 64 -236 141
-129 78 -252 152 -275 165 l-41 24 -21 -27 c-96 -127 -352 -467 -526 -698
-116 -154 -216 -287 -223 -295 -7 -8 -132 -175 -279 -370 -148 -195 -272 -359
-276 -365 -5 -5 -83 -109 -174 -230 -91 -121 -174 -231 -185 -245 -10 -14 -94
-124 -185 -245 -91 -121 -173 -229 -182 -240 -9 -11 -30 -38 -47 -60 -90 -122
-216 -208 -360 -245 -86 -22 -199 -29 -260 -17 -16 4 -45 9 -62 12 -81 13
-211 79 -287 146 -54 48 -124 136 -154 194 -89 176 -94 407 -13 581 26 56 84
150 101 164 3 3 58 75 122 160 162 216 375 499 403 535 13 17 131 172 261 345
131 173 248 329 261 345 42 55 60 79 184 245 68 91 129 172 136 180 7 8 53 69
102 135 49 66 94 125 98 130 5 6 69 91 143 190 74 99 137 182 140 185 3 3 47
61 98 129 l92 123 -42 31 c-24 17 -68 50 -98 74 -30 24 -59 47 -65 51 -52 39
-378 304 -396 321 -9 9 -34 30 -55 48 -22 17 -50 41 -64 53 -104 89 -146 127
-160 140 -9 8 -31 28 -50 44 -201 166 -752 710 -1021 1007 -139 154 -170 189
-195 219 -16 19 -33 40 -39 46 -5 7 -36 41 -68 77 -64 73 -52 70 -142 31 -16
-7 -154 -62 -305 -124 -151 -61 -289 -118 -307 -126 -17 -8 -34 -14 -37 -14
-6 0 -114 -47 -138 -60 -10 -6 -23 -10 -29 -10 -6 0 -25 -7 -42 -15 -18 -8
-183 -75 -367 -150 -184 -75 -348 -142 -365 -150 -16 -7 -66 -27 -110 -44 -44
-18 -89 -36 -100 -41 -11 -5 -159 -66 -330 -135 -170 -69 -319 -130 -330 -135
-19 -9 -121 -50 -405 -164 -63 -26 -128 -53 -145 -60 -58 -27 -460 -189 -490
-198 -68 -20 -95 -23 -200 -23 -94 0 -123 5 -198 29 -111 36 -194 89 -278 177
-96 100 -158 226 -175 356 -10 75 -7 203 6 218 5 7 7 15 4 18 -8 8 23 100 54
162 81 161 188 251 409 344 68 28 125 51 128 51 2 0 28 10 57 23 29 13 73 32
98 42 25 10 59 23 75 31 17 7 77 31 135 54 58 23 119 48 135 55 17 8 131 55
255 105 288 116 417 169 455 185 17 7 131 54 255 105 124 50 320 130 435 177
116 47 248 101 295 120 47 18 94 38 105 43 11 5 45 19 75 30 30 12 64 26 75
31 33 13 93 38 210 86 61 24 124 50 140 57 17 7 71 30 122 51 l92 37 -36 57
c-19 31 -42 63 -49 72 -8 8 -14 19 -14 23 0 4 -8 19 -19 34 -55 80 -212 344
-290 487 -18 33 -36 65 -41 70 -15 19 -250 485 -301 597 -28 62 -65 142 -81
178 -94 203 -234 568 -329 853 -51 153 -142 460 -154 516 -2 9 -11 43 -20 76
-9 33 -18 71 -21 85 -3 14 -14 59 -24 100 -10 41 -21 86 -24 100 -3 14 -7 36
-10 50 -32 148 -88 453 -101 555 -3 22 -7 49 -9 60 -2 11 -7 49 -11 85 -4 36
-9 79 -11 95 -2 17 -6 57 -9 90 -3 33 -8 76 -10 95 -15 128 -28 332 -41 625
-13 306 -6 1177 11 1262 4 22 -20 31 -115 48 -236 41 -779 188 -1130 305 -305
101 -586 208 -850 323 -19 8 -66 28 -105 45 -85 36 -148 65 -425 199 -448 217
-921 484 -1190 671 -74 52 -137 98 -140 101 -3 4 -27 22 -55 41 -27 19 -52 36
-55 39 -3 3 -32 26 -65 51 -81 61 -397 322 -464 385 -486 450 -789 794 -1093
1240 -87 128 -218 341 -218 354 0 5 -3 11 -7 13 -21 9 -247 464 -318 638 -80
198 -192 532 -211 630 -2 14 -7 31 -10 39 -5 16 -43 180 -50 221 -3 14 -7 32
-9 40 -3 8 -7 32 -11 54 -3 21 -8 48 -10 60 -2 11 -9 55 -15 96 -5 41 -12 86
-14 100 -2 14 -7 52 -10 85 -4 33 -8 74 -10 90 -9 78 -18 264 -18 400 -1 147
10 424 18 464 2 11 7 51 10 88 4 37 10 95 15 128 5 33 11 78 15 100 4 32 57
297 80 403 14 60 100 348 131 437 57 162 87 239 96 249 4 6 8 15 8 22 0 16
119 284 180 404 86 171 190 357 263 467 15 23 27 46 27 51 0 6 4 12 8 14 4 2
17 17 27 35 93 150 277 391 435 567 111 124 397 399 462 445 12 8 30 23 40 33
60 60 380 282 548 380 103 61 332 179 420 217 30 13 75 33 100 44 187 83 628
223 800 254 14 2 54 11 89 19 66 15 267 48 356 59 28 3 61 8 75 10 14 2 61 7
105 11 44 4 94 8 110 10 17 1 95 6 175 9 80 4 146 8 147 8 3 3 153 0 338 -7z"/>
<path d="M6689 32446 c-2 -2 -53 -6 -114 -10 -426 -24 -897 -117 -1303 -258
-1027 -354 -1857 -1046 -2422 -2018 -374 -643 -612 -1331 -694 -2005 -9 -71
-19 -148 -22 -170 -10 -73 -13 -668 -3 -765 28 -297 66 -530 130 -788 204
-831 643 -1635 1292 -2367 123 -139 496 -506 647 -636 315 -271 672 -540 908
-683 334 -202 740 -420 1092 -586 785 -372 1548 -633 2348 -805 85 -18 157
-37 162 -41 5 -5 4 -90 -1 -189 -10 -198 -14 -903 -5 -1054 3 -53 8 -154 11
-226 48 -1082 303 -2155 761 -3198 178 -404 465 -942 701 -1315 150 -237 141
-219 123 -235 -8 -8 -730 -305 -1605 -662 -874 -356 -1626 -666 -1670 -689
-189 -96 -318 -297 -332 -515 -24 -362 233 -654 602 -687 148 -12 -115 -114
3343 1298 255 104 469 188 476 186 7 -2 32 -25 56 -53 398 -465 916 -994 1345
-1374 243 -216 687 -580 858 -705 37 -28 67 -56 67 -63 0 -14 -98 -145 -1604
-2138 -352 -466 -509 -681 -532 -730 -109 -235 -68 -509 106 -708 45 -50 151
-125 221 -155 66 -29 180 -52 251 -52 169 1 358 81 466 199 32 36 497 649
1627 2146 460 610 526 695 539 695 7 0 143 -78 303 -174 959 -577 1963 -1046
2993 -1396 l285 -97 44 -79 c545 -983 1538 -1627 2711 -1759 216 -24 250 -26
470 -26 365 0 661 38 991 127 930 250 1718 850 2201 1674 l56 95 134 44 c890
291 1884 739 2778 1251 210 120 437 256 562 336 38 25 77 44 85 42 16 -3 63
-64 579 -748 160 -212 379 -502 488 -645 108 -143 352 -467 543 -720 653 -865
610 -815 758 -890 144 -73 282 -92 428 -59 92 21 145 44 228 100 205 136 314
401 265 644 -35 169 58 37 -1184 1682 -202 267 -517 685 -699 927 -183 242
-333 447 -333 455 0 7 26 33 58 57 147 110 539 428 677 550 17 14 71 62 120
105 404 353 862 808 1223 1217 102 115 173 187 185 187 17 0 276 -105 2521
-1022 697 -285 1000 -404 1055 -414 194 -39 415 31 562 176 284 281 241 765
-89 983 -51 34 -446 200 -1647 690 -1270 519 -1581 649 -1583 664 -2 11 43 92
106 189 238 371 412 674 591 1031 603 1205 924 2408 986 3688 3 66 8 152 12
190 4 39 7 315 7 615 l1 545 80 17 c1200 266 2163 640 3270 1271 314 179 581
362 890 611 485 389 918 834 1255 1286 626 842 978 1743 1059 2715 13 150 13
513 1 671 -51 662 -222 1282 -525 1899 -488 992 -1171 1702 -2075 2155 -992
497 -2185 625 -3464 369 -1111 -222 -2337 -772 -3226 -1447 -589 -448 -1168
-1034 -1669 -1692 -56 -74 -110 -138 -118 -141 -9 -3 -77 29 -157 73 -588 327
-1379 664 -2083 887 -1138 360 -2291 576 -3718 696 -198 16 -575 37 -975 54
-240 10 -1324 10 -1595 0 -475 -17 -757 -32 -1120 -60 -2178 -162 -4055 -600
-5630 -1314 -202 -92 -592 -286 -759 -379 -66 -36 -126 -66 -135 -66 -9 0 -62
62 -121 143 -164 223 -392 503 -575 707 -254 284 -645 663 -885 860 -30 25
-64 53 -75 63 -45 41 -309 241 -435 329 -570 401 -1348 788 -2074 1034 -532
180 -1068 300 -1561 349 -88 8 -180 18 -205 21 -54 6 -665 16 -671 10z m16211
-23250 c0 -4 -208 -143 -240 -161 -8 -5 -1 5 15 21 17 16 32 28 34 27 2 -2 11
6 20 16 9 10 26 21 39 25 12 4 22 12 22 17 0 5 9 9 19 9 11 0 21 3 23 8 2 4
17 15 33 24 33 19 35 20 35 14z"/>
</g>
</svg>
